<svg width="21" height="22" viewBox="0 0 21 22" fill="none" xmlns="http://www.w3.org/2000/svg">
<path d="M10.5 0C16.299 0 21 4.79309 21 10.7051C20.9997 16.6168 16.2988 21.4092 10.5 21.4092C7.51694 21.4092 2.61221 21.4785 0 21.4785V10.7051C0 4.79309 4.70101 2.49596e-06 10.5 0ZM10.5 2.26074C5.92185 2.26074 2.21094 6.04456 2.21094 10.7119V19.2178C4.27332 19.2178 8.14512 19.1631 10.5 19.1631C15.0781 19.1631 18.789 15.3792 18.7891 10.7119C18.7891 6.04457 15.0781 2.26076 10.5 2.26074Z" fill="#2497F3"/>
<ellipse cx="13.8156" cy="8.47821" rx="1.65789" ry="1.69565" fill="#2C91F3"/>
<path fill-rule="evenodd" clip-rule="evenodd" d="M12.7621 14.1717C13.1624 14.0841 13.5568 13.9741 13.9451 13.8417C15.0191 13.7051 15.3955 14.9701 14.5904 15.6017C11.8988 16.9644 8.88872 16.5651 6.95435 14.8867C6.57524 14.4954 6.17942 14.1572 5.87731 13.7051C5.39179 12.8535 5.93108 11.7251 7.16945 12.2467C7.65189 12.6601 8.02832 13.1551 8.56761 13.5667C9.88919 14.4069 11.2874 14.6085 12.7621 14.1717Z" fill="#2B93F2"/>
</svg>
